HIERARCHY
ROOT Hips
{
	OFFSET 0.000000 0.000000 0.000000
	CHANNELS 6 Xposition Yposition Zposition Zrotation Yrotation Xrotation 
	JOINT Spine
	{
		OFFSET 0.000000 10.000000 0.000000
		CHANNELS 3 Zrotation Yrotation Xrotation
		End Site
		{
			OFFSET 0.000000 10.000000 0.000000
		} 
	}
}
MOTION
Frames: 2
Frame Time: 0.033333
0 0 0 0 0 0 0 0 0
0 0 0 0 0 0 0 0 90
